<?xml version="1.0" encoding="UTF-8" standalone="no"?>
<!-- Created with Inkscape (http://www.inkscape.org/) -->

<svg
   id="svg4199"
   height="64"
   width="64"
   version="1.1"
   viewBox="0 0 64 64.000001"
   sodipodi:docname="Navigation_Mouse_ShiftOrCtrlLeft.svg"
   inkscape:version="1.2.2 (b0a8486541, 2022-12-01)"
   xmlns:inkscape="http://www.inkscape.org/namespaces/inkscape"
   xmlns:sodipodi="http://sodipodi.sourceforge.net/DTD/sodipodi-0.dtd"
   xmlns="http://www.w3.org/2000/svg"
   xmlns:svg="http://www.w3.org/2000/svg"
   xmlns:rdf="http://www.w3.org/1999/02/22-rdf-syntax-ns#"
   xmlns:cc="http://creativecommons.org/ns#"
   xmlns:dc="http://purl.org/dc/elements/1.1/">
  <defs
     id="defs30" />
  <sodipodi:namedview
     id="namedview28"
     pagecolor="#ffffff"
     bordercolor="#000000"
     borderopacity="0.25"
     inkscape:showpageshadow="2"
     inkscape:pageopacity="0.0"
     inkscape:pagecheckerboard="0"
     inkscape:deskcolor="#d1d1d1"
     showgrid="false"
     inkscape:zoom="12.21875"
     inkscape:cx="40.920716"
     inkscape:cy="30.936061"
     inkscape:window-width="1920"
     inkscape:window-height="1011"
     inkscape:window-x="0"
     inkscape:window-y="0"
     inkscape:window-maximized="1"
     inkscape:current-layer="layer1" />
  <metadata
     id="metadata4204">
    <rdf:RDF>
      <cc:Work
         rdf:about="">
        <dc:format>image/svg+xml</dc:format>
        <dc:type
           rdf:resource="http://purl.org/dc/dcmitype/StillImage" />
        <dc:title />
      </cc:Work>
    </rdf:RDF>
  </metadata>
  <g
     id="layer1"
     transform="translate(0 -988.36)">
    <g
       fill-rule="evenodd"
       id="g9"
       transform="translate(-0.08431905,0.09766624)">
      <rect
         id="rect4151-2"
         style="color:#000000"
         ry="10"
         height="56"
         width="58"
         y="992.35999"
         x="3"
         fill="#eeeeec" />
      <g
         stroke="#2e3436"
         id="g7">
        <path
           id="path4153-9"
           d="m 20.923,1033.6 v -13.846 c 0,-5.5385 2.7692,-8.6538 11.077,-8.6538 8.3077,0 11.077,3.1153 11.077,8.6538 v 13.846 c 0,5.5384 -2.7692,12.115 -11.077,12.115 -8.3077,0 -11.077,-6.577 -11.077,-12.115 z"
           stroke-width="1.3846"
           fill="#ffffff" />
        <path
           id="path4155-1"
           d="m 21.615,1021.8 c -0.096,-6.9 1.017,-10.1 10.385,-10.1 v 10.038 z"
           stroke-width="0.34615"
           fill="#729fcf" />
        <path
           id="path4157-2"
           d="m 42.385,1021.8 c 0.096,-6.9 -1.017,-10.1 -10.385,-10.1 v 10.038 z"
           stroke-width="0.34615"
           fill="#ffffff" />
      </g>
    </g>
    <g
       stroke="#2e3436"
       id="g14">
      <path
         id="path4159-7"
         d="m32 1022.5v-11.423"
         stroke-width="1.3846"
         fill="none" />
      <path
         id="path4161-0"
         d="m20.923 1022.5h22.154"
         stroke-width="1.3846"
         fill="none" />
      <rect
         id="rect4163-9"
         height="12.462"
         stroke-linecap="round"
         stroke-width="1.1077"
         fill="#fff"
         style="color:#000000"
         fill-rule="evenodd"
         ry="2.4231"
         width="5.5385"
         y="1016.2"
         x="29.231" />
    </g>
    <g
       id="g4173"
       stroke="#2e3436"
       transform="translate(-0.73213405,988.2785)">
      <g
         id="g8688-7-6"
         transform="matrix(0.81244,0,0,0.81244,34.288,-796.58)"
         stroke-linecap="round"
         stroke-width="1.3"
         fill="none">
        <path
           id="path5828-6-6"
           d="m 0.44326185,995.73162 -2.89252375,5.25688" />
      </g>
      <g
         id="g10"
         stroke-width="0.6"
         fill="#2e3436">
        <path
           id="path4780"
           d="m 7.3,12.178 q 0,-0.76172 0.52734,-1.3037 0.52734,-0.54688 1.2744,-0.54688 1.0352,0 1.8799,0.31738 0.35156,0.13184 0.35156,0.40527 0,0.33691 -0.33691,0.33691 -0.1416,0 -0.44434,-0.11719 -0.62988,-0.24414 -1.3428,-0.24414 -0.64453,0 -0.98145,0.45898 -0.20508,0.27832 -0.20508,0.73242 0,0.62012 0.75684,1.0059 l 1.7822,0.90332 q 1.1572,0.5957 1.1572,1.7285 0,0.84961 -0.60547,1.3721 -0.547,0.473 -1.314,0.473 -1.1621,0 -2.2266,-0.698 -0.2734,-0.181 -0.2734,-0.401 0,-0.33691 0.36133,-0.33691 0.13184,0 0.35156,0.15625 0.77148,0.55176 1.8506,0.55176 0.31738,0 0.57129,-0.13184 0.56152,-0.29297 0.56152,-1.0107 0,-0.67871 -0.7373,-1.0498 l -1.919,-0.972 q -1.04,-0.527 -1.04,-1.63 z" />
        <path
           id="path4782"
           d="m 17.05,13.989 h -3.0322 v 3.335 q 0,0.376 -0.362,0.376 -0.356,0 -0.356,-0.371 v -6.5869 q 0,-0.41504 0.35645,-0.41504 0.36133,0 0.36133,0.41504 v 2.5439 h 3.0322 v -2.5732 q 0,-0.36621 0.34668,-0.36621 0.34668,0 0.34668,0.36133 v 6.6016 q 0,0.39 -0.346,0.39 -0.347,0 -0.347,-0.381 v -3.3301 z" />
        <path
           id="path4784"
           d="m 20.042,17.231 q 0,0.469 -0.371,0.469 -0.371,0 -0.371,-0.459 v -6.4746 q 0,-0.43945 0.37109,-0.43945 0.37109,0 0.37109,0.4541 v 6.4502 z" />
        <path
           id="path4786"
           d="m 22.023,13.994 v 3.3057 q 0,0.4 -0.367,0.4 -0.356,0 -0.356,-0.405 0,0 0,-6.6309 0,-0.3418 0.38086,-0.3418 0,0 2.9102,0 0.38574,0 0.38574,0.35156 0,0.35156 -0.38086,0.35156 h -2.5684 v 2.2559 h 2.5684 q 0.38086,0 0.38086,0.35645 0,0.35644 -0.38574,0.35644 h -2.5684 z" />
        <path
           id="path4788"
           d="m 26.3,10.639 q 0,-0.33691 0.42969,-0.33691 h 3.6182 q 0.35156,0 0.35156,0.35156 0,0.35644 -0.3418,0.35644 h -1.499 v 6.3037 q 0,0.38574 -0.35644,0.38574 -0.35644,0 -0.35644,-0.37598 v -6.3135 h -1.4258 q -0.42,10e-4 -0.42,-0.371 z" />
        <path
           id="path4792"
           d="m 39.107,10.317 q 0,0 1.4941,0 0.36133,0 0.36133,0.36621 0,0.37109 -0.39062,0.37109 h -1.4697 q -0.41016,0 -0.7959,0.35644 -0.29297,0.27344 -0.29297,0.73242 v 3.7305 q 0,0.45898 0.30762,0.79102 0.32227,0.3418 0.66895,0.3418 h 1.6406 q 0.35156,0 0.35156,0.35644 0,0.33692 -0.35644,0.33692 h -1.665 q -0.67383,0 -1.2598,-0.64942 -0.401,-0.445 -0.401,-1.138 v -3.8232 q 0,-0.73242 0.57617,-1.2744 0.52734,-0.49805 1.2305,-0.49805 z" />
        <path
           id="path4794"
           d="m 42.3,10.639 q 0,-0.33691 0.42969,-0.33691 h 3.6182 q 0.35156,0 0.35156,0.35156 0,0.35644 -0.3418,0.35644 h -1.499 v 6.3037 q 0,0.38574 -0.35644,0.38574 -0.35644,0 -0.35644,-0.37598 v -6.3135 h -1.4258 q -0.42,10e-4 -0.42,-0.371 z" />
        <path
           id="path4796"
           d="m 49.018,14.033 q 0,0 1.5967,0 0.50781,0 1.0156,-0.4834 0.39551,-0.37598 0.39551,-1.0596 0,-0.51758 -0.42969,-0.96191 -0.4541,-0.47363 -0.98633,-0.47363 h -1.5918 v 2.9785 z m -0.33691,-3.6768 h 1.9287 q 0.89356,0 1.626,0.80078 0.4834,0.52734 0.4834,1.2061 0,0.6543 -0.24414,1.2305 -0.26856,0.62988 -1.1084,0.98144 l 1.2744,2.5049 q 0.07324,0.15137 0.07324,0.24902 2e-6,0.37109 -0.36133,0.37109 -0.19043,0 -0.32715,-0.27832 l -1.3672,-2.6709 h -1.6553 v 2.5635 q -10e-4,0.385 -0.357,0.385 -0.347,0 -0.347,-0.391 v -6.5771 q 0,-0.37598 0.38086,-0.37598 z" />
        <path
           id="path4798"
           d="m 55.008,10.703 v 6.2891 h 2.5439 q 0.44434,0 0.44434,0.35644 0,0.35156 -0.45898,0.35156 h -2.8906 q -0.346,0 -0.346,-0.435 v -6.5625 q 0,-0.37598 0.35156,-0.37598 0.35644,0 0.35644,0.37598 z" />
      </g>
    </g>
  </g>
</svg>
